<svg width="44" height="49" viewBox="0 0 44 49" fill="none" xmlns="http://www.w3.org/2000/svg">
<path d="M43.916 1.81591C43.7915 1.34799 43.5309 0.927587 43.1672 0.608014C42.8034 0.288441 42.353 0.0840995 41.8729 0.0209079C41.3929 -0.0422838 40.9049 0.0385214 40.4708 0.253074C40.0367 0.467628 39.6762 0.806261 39.4349 1.22602L29.3319 18.7278V15.4843C29.3319 14.6199 28.9885 13.791 28.3773 13.1798C27.7662 12.5686 26.9372 12.2252 26.0729 12.2252H21.9991V10.5957H26.0729C26.289 10.5957 26.4962 10.5099 26.649 10.3571C26.8018 10.2043 26.8876 9.99705 26.8876 9.78096C26.8876 9.56487 26.8018 9.35764 26.649 9.20484C26.4962 9.05204 26.289 8.9662 26.0729 8.9662V6.52194C26.0729 6.30585 25.987 6.09861 25.8342 5.94582C25.6814 5.79302 25.4742 5.70718 25.2581 5.70718H21.9991C21.783 5.70718 21.5758 5.79302 21.423 5.94582C21.2702 6.09861 21.1843 6.30585 21.1843 6.52194V8.9662C20.9682 8.9662 20.761 9.05204 20.6082 9.20484C20.4554 9.35764 20.3696 9.56487 20.3696 9.78096V12.3409C19.672 12.521 19.0538 12.9272 18.6116 13.4959C18.1693 14.0646 17.928 14.7638 17.9253 15.4843V20.4192C17.5554 20.5401 17.2187 20.7454 16.9419 21.0189C16.7704 21.1899 16.538 21.286 16.2958 21.286C16.0536 21.286 15.8212 21.1899 15.6497 21.0189C15.1655 20.556 14.5214 20.2977 13.8515 20.2977C13.1817 20.2977 12.5376 20.556 12.0534 21.0189C11.5418 21.5392 11.1295 22.1486 10.8369 22.8171H9.70361L8.76746 20.7443C8.60117 20.376 8.57771 19.959 8.70162 19.5743C8.82553 19.1896 9.08798 18.8647 9.438 18.6626L12.6628 16.8009C13.0124 16.5974 13.4255 16.5318 13.8209 16.6169C14.2164 16.7021 14.5658 16.9319 14.8007 17.2612C14.9269 17.4367 15.1176 17.5548 15.3309 17.5897C15.5443 17.6245 15.7627 17.5732 15.9381 17.447C16.1136 17.3208 16.2317 17.1301 16.2666 16.9168C16.3014 16.7035 16.2501 16.4851 16.1239 16.3096C15.7969 15.8548 15.3576 15.4926 14.8487 15.2584C14.3399 15.0242 13.779 14.926 13.2209 14.9734L11.8358 12.5739L10.6137 10.4556L11.3193 10.0482L14.1416 8.41869C14.2343 8.36526 14.3156 8.29408 14.3808 8.20923C14.446 8.12437 14.4939 8.0275 14.5216 7.92415C14.5494 7.8208 14.5565 7.71299 14.5426 7.60688C14.5287 7.50077 14.4941 7.39844 14.4406 7.30573L12.8111 4.48342C12.7576 4.39065 12.6863 4.30935 12.6014 4.24415C12.5164 4.17894 12.4195 4.13113 12.316 4.10343C12.2126 4.07574 12.1047 4.06871 11.9985 4.08274C11.8924 4.09677 11.79 4.1316 11.6973 4.18522L8.875 5.81473L0.40806 10.7033C0.315188 10.7568 0.233784 10.8281 0.168513 10.9131C0.103241 10.9981 0.0553833 11.0951 0.0276824 11.1987C-1.86301e-05 11.3022 -0.00701879 11.4102 0.00708261 11.5165C0.021184 11.6227 0.0561098 11.7251 0.109859 11.8179L1.73937 14.6402C1.84742 14.8273 2.02537 14.9638 2.23409 15.0198C2.44281 15.0757 2.6652 15.0464 2.85233 14.9384C3.13047 14.7777 3.43755 14.6734 3.75602 14.6315C4.07449 14.5896 4.3981 14.6109 4.70834 14.6941C5.01858 14.7773 5.30937 14.9209 5.56409 15.1166C5.81881 15.3123 6.03246 15.5563 6.19283 15.8346L7.57791 18.2332C7.25793 18.6932 7.06263 19.2282 7.01108 19.7861C6.95953 20.344 7.05349 20.9057 7.28378 21.4165L7.91522 22.8171H4.07446C3.85837 22.8171 3.65114 22.9029 3.49834 23.0557C3.34555 23.2085 3.25971 23.4157 3.25971 23.6318C3.25971 23.8479 3.34555 24.0551 3.49834 24.2079C3.65114 24.3607 3.85837 24.4466 4.07446 24.4466H10.3481L10.1151 26.0761H4.07446C3.85837 26.0761 3.65114 26.1619 3.49834 26.3147C3.34555 26.4675 3.25971 26.6747 3.25971 26.8908C3.25971 27.1069 3.34555 27.3142 3.49834 27.467C3.65114 27.6198 3.85837 27.7056 4.07446 27.7056H5.81967L6.07061 29.3351H4.07446C3.85837 29.3351 3.65114 29.4209 3.49834 29.5737C3.34555 29.7265 3.25971 29.9338 3.25971 30.1499C3.25971 38.6861 10.5697 45.6302 19.5548 45.6302C23.0758 45.6374 26.5094 44.5347 29.3677 42.4787L28.6328 47.2597H10.4768L10.0817 44.6916C10.0456 44.4813 9.92848 44.2935 9.75547 44.1686C9.58245 44.0438 9.36734 43.9917 9.15638 44.0237C8.94541 44.0558 8.75542 44.1693 8.62724 44.3398C8.49906 44.5104 8.44292 44.7245 8.47088 44.936L8.97277 48.1951C9.00164 48.388 9.09876 48.5641 9.24647 48.6915C9.39419 48.8189 9.5827 48.889 9.77775 48.8892H29.3319C29.5265 48.8892 29.7146 48.8195 29.8622 48.6927C30.0099 48.566 30.1073 48.3906 30.1369 48.1983L31.2612 40.8932C32.7046 39.4995 33.8543 37.8309 34.6424 35.9857C35.4305 34.1406 35.8411 32.1563 35.8499 30.1499C35.8499 29.9338 35.7641 29.7265 35.6113 29.5737C35.4585 29.4209 35.2513 29.3351 35.0352 29.3351H33.039L33.29 27.7056H35.0352C35.2513 27.7056 35.4585 27.6198 35.6113 27.467C35.7641 27.3142 35.8499 27.1069 35.8499 26.8908V23.6318C35.8499 23.4157 35.7641 23.2085 35.6113 23.0557C35.4585 22.9029 35.2513 22.8171 35.0352 22.8171H32.6154L35.5411 17.7501C35.6475 17.5631 35.6755 17.3416 35.6192 17.1339C35.5628 16.9263 35.4266 16.7494 35.2403 16.6418C35.0539 16.5342 34.8326 16.5047 34.6246 16.5597C34.4166 16.6147 34.2388 16.7497 34.13 16.9353L30.7333 22.8171H28.8528L40.8476 2.04078C40.8993 1.94474 40.9698 1.86005 41.0548 1.79174C41.1398 1.72343 41.2377 1.67288 41.3426 1.6431C41.4475 1.61331 41.5573 1.60489 41.6656 1.61834C41.7738 1.63179 41.8782 1.66683 41.9727 1.72139C42.0671 1.77594 42.1496 1.84891 42.2154 1.93595C42.2811 2.02299 42.3286 2.12234 42.3553 2.22811C42.3819 2.33387 42.387 2.44391 42.3703 2.55168C42.3535 2.65946 42.3154 2.76279 42.258 2.85554L35.7595 14.113C35.7052 14.2057 35.6697 14.3082 35.6551 14.4147C35.6406 14.5212 35.6472 14.6294 35.6747 14.7333C35.7021 14.8372 35.7499 14.9346 35.8152 15.02C35.8804 15.1053 35.9619 15.1769 36.055 15.2307C36.148 15.2844 36.2508 15.3192 36.3574 15.333C36.4639 15.3469 36.5722 15.3395 36.6758 15.3114C36.7795 15.2832 36.8766 15.2348 36.9616 15.169C37.0465 15.1032 37.1175 15.0212 37.1707 14.9278L43.6716 3.67029C43.8327 3.39261 43.9372 3.08579 43.9791 2.76753C44.0211 2.44926 43.9996 2.12584 43.916 1.81591ZM8.82449 17.1349L8.00973 15.7238L9.42089 14.909L10.832 14.0943L11.6468 15.5054L8.82449 17.1349ZM11.8065 6.00538L12.6212 7.41654L11.2101 8.23129L10.8027 7.52572L10.3953 6.82014L11.8065 6.00538ZM4.06631 12.9821C3.63014 12.9822 3.19683 13.0527 2.78307 13.1907L1.92758 11.7087L8.98336 7.63489L9.39074 8.34047L9.79812 9.04605L9.09254 9.45343C8.90542 9.56148 8.76887 9.73943 8.71295 9.94815C8.65703 10.1569 8.6863 10.3793 8.79434 10.5664L10.0165 12.6847L9.12024 13.2038L7.12654 14.355C6.74261 13.9229 6.27142 13.5771 5.74406 13.3405C5.2167 13.1038 4.64515 12.9817 4.06713 12.9821H4.06631ZM19.5548 19.558V17.9285H27.7024V19.558H19.5548ZM22.8138 7.33669H24.4434V8.9662H22.8138V7.33669ZM21.1843 13.8547H26.0729C26.505 13.8547 26.9195 14.0264 27.2251 14.332C27.5307 14.6376 27.7024 15.0521 27.7024 15.4843V16.299H19.5548V15.4843C19.5548 15.0521 19.7265 14.6376 20.0321 14.332C20.3377 14.0264 20.7522 13.8547 21.1843 13.8547ZM9.88611 27.7056L8.71857 35.8531L7.46873 27.7056H9.88611ZM6.32156 30.9646L7.38074 37.8363C5.93119 35.822 5.07664 33.441 4.91447 30.9646H6.32156ZM34.1952 30.9646C34.0336 33.4404 33.1799 35.8211 31.7313 37.8354L32.7881 30.9646H34.1952ZM34.2204 26.0761H25.0251C24.809 26.0761 24.6018 26.1619 24.449 26.3147C24.2962 26.4675 24.2103 26.6747 24.2103 26.8908C24.2103 27.1069 24.2962 27.3142 24.449 27.467C24.6018 27.6198 24.809 27.7056 25.0251 27.7056H31.6409L29.7336 40.1045C26.9977 42.559 23.467 43.942 19.792 43.9989C16.1169 44.0558 12.5451 42.7827 9.73457 40.4142L11.8049 39.1716C12.1537 38.962 12.5571 38.8613 12.9636 38.8823C13.37 38.9034 13.7609 39.0452 14.0862 39.2898C14.724 39.7647 15.4981 40.0213 16.2934 40.0213C17.0886 40.0213 17.8627 39.7647 18.5005 39.2898C18.8258 39.0452 19.2167 38.9034 19.6231 38.8823C20.0296 38.8613 20.433 38.962 20.7818 39.1716C21.1319 39.3833 21.5348 39.4912 21.9438 39.4827C22.3528 39.4743 22.7509 39.3498 23.0919 39.1238C23.4329 38.8979 23.7026 38.5797 23.8698 38.2063C24.0369 37.833 24.0945 37.4198 24.036 37.015L23.5088 33.3274C23.4783 33.1135 23.3639 32.9205 23.1911 32.7908C23.0182 32.6612 22.8009 32.6055 22.5869 32.6361C22.373 32.6667 22.18 32.781 22.0503 32.9539C21.9207 33.1267 21.865 33.3441 21.8956 33.558L22.4228 37.2456C22.4386 37.345 22.4251 37.447 22.3839 37.5389C22.3426 37.6308 22.2754 37.7087 22.1906 37.7629C22.108 37.8201 22.0105 37.8517 21.9101 37.8538C21.8097 37.856 21.7109 37.8287 21.6259 37.7752C21.1844 37.5132 20.6928 37.3467 20.183 37.2863L19.5548 28.4625C19.5472 28.3555 19.5186 28.2511 19.4707 28.1551C19.4227 28.0592 19.3563 27.9736 19.2753 27.9033C19.1943 27.833 19.1002 27.7794 18.9984 27.7455C18.8967 27.7115 18.7892 27.698 18.6822 27.7056C18.5752 27.7132 18.4708 27.7418 18.3748 27.7897C18.2789 27.8377 18.1933 27.9041 18.123 27.9851C18.0528 28.0662 17.9991 28.1602 17.9652 28.262C17.9313 28.3638 17.9177 28.4712 17.9253 28.5782L18.5592 37.4444C18.1873 37.5686 17.8377 37.7515 17.5236 37.9862C17.1682 38.2505 16.7371 38.3932 16.2942 38.3932C15.8513 38.3932 15.4201 38.2505 15.0647 37.9862C14.7876 37.7803 14.4832 37.6138 14.1603 37.4916L15.4729 26.9919C15.4943 26.7802 15.432 26.5686 15.2994 26.4022C15.1668 26.2358 14.9744 26.1279 14.7633 26.1015C14.5522 26.0751 14.3392 26.1323 14.1697 26.261C14.0002 26.3896 13.8878 26.5794 13.8564 26.7898L12.5479 37.2627C11.9881 37.3104 11.4467 37.4854 10.9649 37.7743L10.0108 38.3447L11.9662 24.6397C11.9998 24.4069 12.0522 24.1772 12.1226 23.9528L12.13 23.9365C12.3413 23.2699 12.7089 22.6634 13.2022 22.1677C13.3737 21.9966 13.606 21.9006 13.8483 21.9006C14.0905 21.9006 14.3229 21.9966 14.4944 22.1677C14.9786 22.6306 15.6227 22.8889 16.2925 22.8889C16.9624 22.8889 17.6065 22.6306 18.0907 22.1677C18.2622 21.9966 18.4946 21.9006 18.7368 21.9006C18.979 21.9006 19.2114 21.9966 19.3829 22.1677C19.8757 22.6635 20.2432 23.2696 20.4551 23.9357L20.4625 23.9528C20.5333 24.1774 20.5856 24.4074 20.6189 24.6405L21.4336 30.3283C21.4462 30.4364 21.4803 30.5409 21.5339 30.6356C21.5875 30.7304 21.6596 30.8134 21.7458 30.8798C21.832 30.9462 21.9307 30.9947 22.0359 31.0223C22.1412 31.05 22.251 31.0563 22.3587 31.0408C22.4664 31.0254 22.57 30.9885 22.6632 30.9323C22.7565 30.8762 22.8375 30.8019 22.9016 30.7139C22.9657 30.6259 23.0115 30.526 23.0363 30.42C23.0611 30.3141 23.0644 30.2042 23.046 30.0969L22.2435 24.4466H34.2204V26.0761ZM21.7547 22.8171C21.4879 22.2188 21.1249 21.6683 20.68 21.1875H27.7024V21.5501L26.9691 22.8171H21.7547Z" fill="#249D4D"/>
</svg>
