<svg width="269" height="38" viewBox="0 0 269 38" fill="none" xmlns="http://www.w3.org/2000/svg">
<path d="M195.84 25.9331C196.309 25.9331 196.747 25.8433 197.153 25.6636C197.559 25.4839 197.891 25.1909 198.149 24.7847C198.407 24.3706 198.555 23.8081 198.594 23.0972H200.012C199.981 23.9878 199.77 24.7456 199.379 25.3706C198.997 25.9956 198.497 26.4722 197.879 26.8003C197.262 27.1284 196.583 27.2925 195.84 27.2925C195.067 27.2925 194.391 27.1675 193.813 26.9175C193.235 26.6597 192.754 26.2808 192.372 25.7808C191.989 25.2808 191.7 24.6675 191.504 23.9409C191.309 23.2144 191.211 22.3745 191.211 21.4214V19.9917C191.211 19.0386 191.309 18.1987 191.504 17.4722C191.7 16.7456 191.989 16.1362 192.372 15.644C192.754 15.144 193.235 14.769 193.813 14.519C194.399 14.2612 195.075 14.1323 195.84 14.1323C196.645 14.1323 197.352 14.3003 197.961 14.6362C198.571 14.9722 199.055 15.4761 199.415 16.1479C199.782 16.812 199.981 17.6519 200.012 18.6675H198.594C198.563 17.9175 198.422 17.312 198.172 16.8511C197.93 16.3823 197.61 16.0386 197.211 15.8198C196.813 15.6011 196.356 15.4917 195.84 15.4917C195.254 15.4917 194.758 15.5933 194.352 15.7964C193.954 15.9995 193.633 16.2964 193.391 16.687C193.149 17.0698 192.973 17.5386 192.864 18.0933C192.754 18.6479 192.7 19.2808 192.7 19.9917V21.4214C192.7 22.1323 192.754 22.769 192.864 23.3315C192.973 23.8862 193.149 24.3589 193.391 24.7495C193.633 25.1323 193.958 25.4253 194.364 25.6284C194.77 25.8315 195.262 25.9331 195.84 25.9331ZM208.881 27.2925C208.163 27.2925 207.506 27.1792 206.913 26.9526C206.319 26.7183 205.807 26.3667 205.378 25.8979C204.956 25.4214 204.628 24.8276 204.393 24.1167C204.167 23.3979 204.053 22.5464 204.053 21.562V20.1089C204.053 19.0386 204.178 18.1245 204.428 17.3667C204.678 16.6089 205.018 15.9917 205.448 15.5151C205.885 15.0386 206.378 14.6909 206.924 14.4722C207.479 14.2456 208.057 14.1323 208.659 14.1323C209.378 14.1323 210.006 14.2495 210.545 14.4839C211.085 14.7183 211.53 15.0737 211.881 15.5503C212.241 16.019 212.506 16.6089 212.678 17.3198C212.858 18.0308 212.948 18.8628 212.948 19.8159V20.9409H204.944V19.5815H211.46V19.2651C211.436 18.4839 211.327 17.812 211.131 17.2495C210.936 16.687 210.635 16.2534 210.229 15.9487C209.831 15.644 209.311 15.4917 208.67 15.4917C208.21 15.4917 207.784 15.5737 207.393 15.7378C207.01 15.9019 206.678 16.1636 206.397 16.5229C206.124 16.8823 205.913 17.3589 205.764 17.9526C205.624 18.5386 205.553 19.2573 205.553 20.1089V21.562C205.553 22.312 205.631 22.9604 205.788 23.5073C205.944 24.0542 206.17 24.5073 206.467 24.8667C206.772 25.2261 207.131 25.4956 207.545 25.6753C207.967 25.8472 208.44 25.9331 208.963 25.9331C209.628 25.9331 210.198 25.8159 210.674 25.5815C211.159 25.3394 211.588 24.9956 211.963 24.5503L212.749 25.5347C212.522 25.8394 212.233 26.1284 211.881 26.4019C211.538 26.6675 211.12 26.8823 210.628 27.0464C210.135 27.2104 209.553 27.2925 208.881 27.2925ZM219.215 14.3667V27.0464H217.704V14.3667H219.215ZM226.2 14.3667L221.243 21.3394H218.688L218.501 19.9097H220.622L224.36 14.3667H226.2ZM224.7 27.0464L220.516 21.1167L221.477 19.9097L226.622 27.0464H224.7ZM237.823 14.3667V15.7378H232.561V14.3667H237.823ZM239.1 14.3667V27.0464H237.612V14.3667H239.1ZM232.175 14.3667H233.675L233.417 20.3667C233.37 21.3276 233.3 22.1753 233.206 22.9097C233.12 23.6362 232.991 24.2651 232.819 24.7964C232.655 25.3198 232.448 25.7495 232.198 26.0854C231.956 26.4136 231.663 26.6558 231.319 26.812C230.975 26.9683 230.581 27.0464 230.135 27.0464H229.62V25.605L230.007 25.5815C230.288 25.5659 230.53 25.4956 230.733 25.3706C230.936 25.2456 231.112 25.0464 231.26 24.7729C231.409 24.4995 231.53 24.144 231.624 23.7065C231.718 23.269 231.792 22.7417 231.846 22.1245C231.901 21.4995 231.944 20.7612 231.975 19.9097L232.175 14.3667ZM248.813 27.2925C248.095 27.2925 247.438 27.1792 246.845 26.9526C246.251 26.7183 245.739 26.3667 245.309 25.8979C244.888 25.4214 244.559 24.8276 244.325 24.1167C244.098 23.3979 243.985 22.5464 243.985 21.562V20.1089C243.985 19.0386 244.11 18.1245 244.36 17.3667C244.61 16.6089 244.95 15.9917 245.38 15.5151C245.817 15.0386 246.309 14.6909 246.856 14.4722C247.411 14.2456 247.989 14.1323 248.591 14.1323C249.309 14.1323 249.938 14.2495 250.477 14.4839C251.016 14.7183 251.462 15.0737 251.813 15.5503C252.173 16.019 252.438 16.6089 252.61 17.3198C252.79 18.0308 252.88 18.8628 252.88 19.8159V20.9409H244.876V19.5815H251.391V19.2651C251.368 18.4839 251.259 17.812 251.063 17.2495C250.868 16.687 250.567 16.2534 250.161 15.9487C249.763 15.644 249.243 15.4917 248.602 15.4917C248.141 15.4917 247.716 15.5737 247.325 15.7378C246.942 15.9019 246.61 16.1636 246.329 16.5229C246.055 16.8823 245.845 17.3589 245.696 17.9526C245.555 18.5386 245.485 19.2573 245.485 20.1089V21.562C245.485 22.312 245.563 22.9604 245.72 23.5073C245.876 24.0542 246.102 24.5073 246.399 24.8667C246.704 25.2261 247.063 25.4956 247.477 25.6753C247.899 25.8472 248.372 25.9331 248.895 25.9331C249.559 25.9331 250.13 25.8159 250.606 25.5815C251.091 25.3394 251.52 24.9956 251.895 24.5503L252.68 25.5347C252.454 25.8394 252.165 26.1284 251.813 26.4019C251.47 26.6675 251.052 26.8823 250.559 27.0464C250.067 27.2104 249.485 27.2925 248.813 27.2925ZM259.768 21.1636H261.409L258.386 27.0464H256.757L259.768 21.1636ZM261.151 14.3667H265.475V27.0464H263.987V15.7144H261.151C260.581 15.7144 260.116 15.8354 259.757 16.0776C259.405 16.312 259.143 16.6206 258.972 17.0034C258.808 17.3784 258.725 17.7769 258.725 18.1987C258.725 18.605 258.8 18.9956 258.948 19.3706C259.097 19.7378 259.327 20.0386 259.64 20.2729C259.96 20.5073 260.374 20.6245 260.882 20.6245H264.433V21.9956H260.882C260.296 21.9956 259.776 21.9019 259.323 21.7144C258.87 21.519 258.487 21.2495 258.175 20.9058C257.862 20.562 257.624 20.1597 257.46 19.6987C257.304 19.23 257.225 18.7222 257.225 18.1753C257.225 17.6284 257.311 17.1245 257.483 16.6636C257.663 16.1948 257.921 15.7886 258.257 15.4448C258.593 15.1011 259.003 14.8354 259.487 14.6479C259.972 14.4604 260.526 14.3667 261.151 14.3667Z" fill="#333333"/>
<path fill-rule="evenodd" clip-rule="evenodd" d="M174.377 7.7131H152.046V30.1402H167.307C167.307 30.1402 174.894 30.1402 176.705 37.6897C181.413 22.0246 172.079 16.826 174.377 7.7131Z" fill="#D7B56D"/>
<path fill-rule="evenodd" clip-rule="evenodd" d="M168.686 11.3473C168.619 11.3473 168.553 11.3367 168.486 11.3133C168.218 11.2183 168.09 10.9547 168.2 10.725C168.211 10.7015 169.321 8.26861 168.176 4.18094C167.744 2.64221 166.747 1.59803 165.291 1.16207C163.687 0.68041 161.896 1.04019 161.027 1.62264C157.702 3.85046 158.881 10.5375 158.894 10.6043C158.939 10.8504 158.743 11.0812 158.457 11.1199C158.171 11.1597 157.901 10.991 157.855 10.7437C157.801 10.4484 156.572 3.46138 160.379 0.911279C161.098 0.43079 162.251 0.0745254 163.509 0.0393677H163.91C164.481 0.0546027 165.068 0.138981 165.637 0.310082C166.899 0.688613 168.541 1.63084 169.197 3.97C170.43 8.36588 169.224 10.9593 169.172 11.0683C169.089 11.243 168.893 11.3473 168.686 11.3473Z" fill="#333333"/>
<path fill-rule="evenodd" clip-rule="evenodd" d="M143.051 16.117C145.617 32.3716 154.081 40.9489 166.587 34.8361C166.587 34.8361 172.748 32.1911 176.844 37.6898C171.328 11.5594 155.57 17.3639 143.051 16.117Z" fill="#249D4D"/>
<path d="M4.16826 27.6577C6.75224 27.6577 8.41467 25.9919 8.48876 23.009H7.00089C6.92579 25.1972 5.90681 26.2155 4.16826 26.2155C2.50684 26.2155 1.48787 25.1972 1.48787 23.009V18.7078C1.48787 16.5196 2.50684 15.5012 4.16826 15.5012C5.90681 15.5012 6.90143 16.5196 6.97552 18.7078H8.46339C8.3893 15.7248 6.75224 14.0591 4.16826 14.0591C1.66142 14.0591 0 15.7248 0 18.7078V23.009C0 25.9919 1.66142 27.6577 4.16826 27.6577ZM20.4698 14.3568L17.6149 23.879L14.3641 14.3568H12.7991L16.9704 26.0915L16.1514 28.7777C15.8276 29.8459 15.4551 30.7149 14.3144 30.7149H13.6669V32.1581H14.5123C16.3006 32.1581 17.0445 30.9405 17.6149 29.0013L22.0095 14.3568H20.4698ZM34.9334 14.3568H27.0394V27.4097H28.5029V15.7502H33.4699V27.4097H34.9334V14.3568ZM48.3547 23.4064C48.1568 25.3212 47.2119 26.2155 45.3251 26.2155C43.614 26.2155 42.5696 25.1972 42.5696 23.009V21.5912H49.6446V18.7078C49.6446 15.7248 47.9091 14.0591 45.3008 14.0591C42.7686 14.0591 41.0818 15.7248 41.0818 18.7078V23.009C41.0818 25.9919 42.7432 27.6577 45.2754 27.6577C48.0076 27.6577 49.6203 26.1413 49.8192 23.4064H48.3547ZM45.3251 15.5012C47.1134 15.5012 48.1811 16.5196 48.1811 18.7078V20.2252H42.5696V18.7078C42.5696 16.5196 43.614 15.5012 45.3251 15.5012ZM60.2373 14.0591C58.9697 14.0591 57.8543 14.6058 57.157 15.5754L56.9591 14.3568H55.7686V31.8847H57.2068V26.2399C57.9284 27.2359 59.0691 27.7075 60.2373 27.7075C62.7441 27.7075 64.2827 26.0417 64.2827 22.8108V19.0554C64.2827 15.7502 62.596 14.0591 60.2373 14.0591ZM62.7939 22.8108C62.7939 25.2968 61.8246 26.3416 59.9146 26.3416C58.2755 26.3416 57.2068 24.8984 57.2068 22.8108V19.0056C57.2068 16.5694 58.4247 15.427 59.9146 15.427C61.7252 15.427 62.7939 16.4952 62.7939 19.0554V22.8108ZM83.9112 30.2677H85.3514V26.0163H83.9112V14.3568H82.4477V26.0163H77.5802V14.3568H76.1167V27.4097H83.9112V30.2677ZM97.705 23.4064C97.507 25.3212 96.5622 26.2155 94.6754 26.2155C92.9633 26.2155 91.9199 25.1972 91.9199 23.009V21.5912H98.9949V18.7078C98.9949 15.7248 97.2584 14.0591 94.6501 14.0591C92.1178 14.0591 90.431 15.7248 90.431 18.7078V23.009C90.431 25.9919 92.0935 27.6577 94.6257 27.6577C97.3579 27.6577 98.9706 26.1413 99.1685 23.4064H97.705ZM94.6754 15.5012C96.4627 15.5012 97.5314 16.5196 97.5314 18.7078V20.2252H91.9199V18.7078C91.9199 16.5196 92.9633 15.5012 94.6754 15.5012ZM111.548 14.3568V19.9518H106.581V14.3568H105.118V27.4097H106.581V21.3432H111.548V27.4097H113.012V14.3568H111.548ZM123.33 19.155H120.947V14.4808H119.482V27.4097H123.33C125.687 27.4097 127.599 25.6942 127.599 23.257C127.599 20.8462 125.687 19.155 123.33 19.155ZM129.586 14.4808V27.4097H131.051V14.4808H129.586ZM123.33 25.9919H120.947V20.5728H123.33C124.894 20.5728 126.111 21.6156 126.111 23.257C126.111 24.9238 124.894 25.9919 123.33 25.9919Z" fill="#333333"/>
</svg>
