<svg width="36" height="36" viewBox="0 0 36 36" fill="none" xmlns="http://www.w3.org/2000/svg">
<circle cx="18" cy="18" r="18" fill="white"/>
<path d="M25.8208 10.3781C25.645 10.1343 25.3632 10 25.0273 10C24.8696 10 24.7006 10.0297 24.5249 10.0883L10.9171 14.6242C10.447 14.7809 10.1231 15.1011 10.0282 15.5027C9.93339 15.9044 10.0799 16.3357 10.4303 16.6862C10.4646 16.7205 10.5039 16.7492 10.547 16.7714L16.2761 19.7246L19.2294 25.4537C19.2516 25.4968 19.2803 25.5361 19.3146 25.5704C19.5961 25.852 19.9208 26.0008 20.2537 26.0009H20.2537C20.7578 26.0009 21.188 25.6493 21.3765 25.0837L25.9125 11.4759C26.0551 11.0479 26.0225 10.6581 25.8208 10.3781ZM10.9407 15.7182C10.9586 15.6422 11.0632 15.5638 11.2135 15.5137L24.1294 11.2084L16.5347 18.8031L11.0488 15.9753C10.9661 15.8787 10.9253 15.7835 10.9407 15.7182ZM20.4871 24.7872C20.4426 24.9207 20.3579 25.0633 20.2537 25.0633C20.1906 25.0633 20.108 25.0224 20.0255 24.9519L17.1976 19.466L24.7925 11.8712L20.4871 24.7872Z" fill="black"/>
</svg>
